# xmcd
#
# Track frame offsets: 
#        150
#        6010
#        22004
#        34232
#        51281
#        68830
#        88619
#        106136
#        124044
#        140557
#        159232
#        177155
#        197113
#        212201
#        230941
#        265822
#        279700
#
# Disc length: 4147 seconds
#
# Revision: 0
# Processed by: cddbd v1.5.2PL0 Copyright (c) Steve Scherf et al.
# Submitted via: ExactAudioCopy v1.0b3
#
DISCID=f6103111
DTITLE=林峯 - COME 2 ME BEAUTY LIVE ON STAGE CONCERT  Disc 1
DYEAR=2010
DGENRE=Pop
TTITLE0=Opening
TTITLE1=Hello
TTITLE2=原罪
TTITLE3=記得忘記
TTITLE4=我們很好
TTITLE5=如果時間來到
TTITLE6=Let's Get Wet
TTITLE7=Illusion
TTITLE8=定鏡
TTITLE9=愛人與海
TTITLE10=愛在記憶中找你、夏日傾情
TTITLE11=朋友, 請不要傷悲
TTITLE12=Morning Cute
TTITLE13=Vampire
TTITLE14=Medley：夏雪、憑良心說再見、自己保重
TTITLE15=李香蘭
TTITLE16=同謀
EXTD=
EXTT0=
EXTT1=
EXTT2=
EXTT3=
EXTT4=
EXTT5=
EXTT6=
EXTT7=
EXTT8=
EXTT9=
EXTT10=
EXTT11=
EXTT12=
EXTT13=
EXTT14=
EXTT15=
EXTT16=
PLAYORDER=
